<mxfile host="app.diagrams.net" agent="Mozilla/5.0 (Windows NT 10.0; Win64; x64) AppleWebKit/537.36 (KHTML, like Gecko) Chrome/137.0.0.0 Safari/537.36 Edg/137.0.0.0" version="27.1.1">
  <diagram name="Pagina-1" id="ronDR17fJ6q5IKp-quBZ">
    <mxGraphModel dx="713" dy="372" grid="1" gridSize="10" guides="1" tooltips="1" connect="1" arrows="1" fold="1" page="1" pageScale="1" pageWidth="827" pageHeight="1169" math="0" shadow="0">
      <root>
        <mxCell id="0" />
        <mxCell id="1" parent="0" />
        <mxCell id="8T1Mx80KPtTjY7pZMpGo-1" value="&lt;font&gt;Cliente&lt;/font&gt;" style="whiteSpace=wrap;html=1;align=center;fontFamily=Times New Roman;" vertex="1" parent="1">
          <mxGeometry x="145" y="209.76" width="110" height="40" as="geometry" />
        </mxCell>
        <mxCell id="8T1Mx80KPtTjY7pZMpGo-2" value="&lt;font&gt;Carta di&lt;br&gt;Credito&lt;/font&gt;" style="ellipse;whiteSpace=wrap;html=1;align=center;fontFamily=Times New Roman;" vertex="1" parent="1">
          <mxGeometry x="195" y="113" width="100" height="40" as="geometry" />
        </mxCell>
        <mxCell id="8T1Mx80KPtTjY7pZMpGo-3" value="" style="ellipse;whiteSpace=wrap;html=1;aspect=fixed;fontFamily=Times New Roman;" vertex="1" parent="1">
          <mxGeometry x="195" y="93" width="10" height="10" as="geometry" />
        </mxCell>
        <mxCell id="8T1Mx80KPtTjY7pZMpGo-4" value="" style="ellipse;whiteSpace=wrap;html=1;aspect=fixed;fontFamily=Times New Roman;" vertex="1" parent="1">
          <mxGeometry x="225" y="93" width="10" height="10" as="geometry" />
        </mxCell>
        <mxCell id="8T1Mx80KPtTjY7pZMpGo-5" style="edgeStyle=orthogonalEdgeStyle;rounded=0;orthogonalLoop=1;jettySize=auto;html=1;exitX=0.5;exitY=1;exitDx=0;exitDy=0;entryX=0.05;entryY=0.25;entryDx=0;entryDy=0;entryPerimeter=0;endArrow=none;startFill=0;fontFamily=Times New Roman;" edge="1" parent="1" source="8T1Mx80KPtTjY7pZMpGo-3" target="8T1Mx80KPtTjY7pZMpGo-2">
          <mxGeometry relative="1" as="geometry" />
        </mxCell>
        <mxCell id="8T1Mx80KPtTjY7pZMpGo-6" style="edgeStyle=orthogonalEdgeStyle;rounded=0;orthogonalLoop=1;jettySize=auto;html=1;exitX=0.5;exitY=1;exitDx=0;exitDy=0;entryX=0.35;entryY=0.041;entryDx=0;entryDy=0;entryPerimeter=0;endArrow=none;startFill=0;fontFamily=Times New Roman;" edge="1" parent="1" source="8T1Mx80KPtTjY7pZMpGo-4" target="8T1Mx80KPtTjY7pZMpGo-2">
          <mxGeometry relative="1" as="geometry" />
        </mxCell>
        <mxCell id="8T1Mx80KPtTjY7pZMpGo-7" value="" style="ellipse;whiteSpace=wrap;html=1;aspect=fixed;fontFamily=Times New Roman;" vertex="1" parent="1">
          <mxGeometry x="245" y="93" width="10" height="10" as="geometry" />
        </mxCell>
        <mxCell id="8T1Mx80KPtTjY7pZMpGo-8" value="" style="ellipse;whiteSpace=wrap;html=1;aspect=fixed;fontFamily=Times New Roman;" vertex="1" parent="1">
          <mxGeometry x="285" y="93" width="10" height="10" as="geometry" />
        </mxCell>
        <mxCell id="8T1Mx80KPtTjY7pZMpGo-9" style="edgeStyle=orthogonalEdgeStyle;rounded=0;orthogonalLoop=1;jettySize=auto;html=1;exitX=0.5;exitY=1;exitDx=0;exitDy=0;entryX=0.55;entryY=0.003;entryDx=0;entryDy=0;entryPerimeter=0;endArrow=none;startFill=0;fontFamily=Times New Roman;" edge="1" parent="1" source="8T1Mx80KPtTjY7pZMpGo-7" target="8T1Mx80KPtTjY7pZMpGo-2">
          <mxGeometry relative="1" as="geometry" />
        </mxCell>
        <mxCell id="8T1Mx80KPtTjY7pZMpGo-10" value="&lt;font style=&quot;font-size: 10px;&quot;&gt;Intestatario&lt;/font&gt;" style="text;html=1;align=center;verticalAlign=middle;whiteSpace=wrap;rounded=0;fontFamily=Times New Roman;fontSize=12;fontColor=default;labelBackgroundColor=default;" vertex="1" parent="1">
          <mxGeometry x="160" y="70" width="60" height="30" as="geometry" />
        </mxCell>
        <mxCell id="8T1Mx80KPtTjY7pZMpGo-11" value="&lt;font&gt;CVV&lt;/font&gt;" style="text;html=1;align=center;verticalAlign=middle;resizable=0;points=[];autosize=1;strokeColor=none;fillColor=none;fontFamily=Times New Roman;fontSize=10;fontColor=default;labelBackgroundColor=default;" vertex="1" parent="1">
          <mxGeometry x="210" y="70" width="40" height="30" as="geometry" />
        </mxCell>
        <mxCell id="8T1Mx80KPtTjY7pZMpGo-12" value="&lt;font&gt;Numero&lt;/font&gt;" style="text;html=1;align=center;verticalAlign=middle;resizable=0;points=[];autosize=1;strokeColor=none;fillColor=none;fontFamily=Times New Roman;fontSize=10;fontColor=default;labelBackgroundColor=default;" vertex="1" parent="1">
          <mxGeometry x="235" y="70" width="60" height="30" as="geometry" />
        </mxCell>
        <mxCell id="8T1Mx80KPtTjY7pZMpGo-13" value="&lt;font&gt;Data&lt;br&gt;Scadenza&lt;/font&gt;" style="text;html=1;align=center;verticalAlign=middle;resizable=0;points=[];autosize=1;strokeColor=none;fillColor=none;fontFamily=Times New Roman;fontSize=10;fontColor=default;labelBackgroundColor=default;" vertex="1" parent="1">
          <mxGeometry x="275" y="60" width="60" height="40" as="geometry" />
        </mxCell>
        <mxCell id="8T1Mx80KPtTjY7pZMpGo-14" value="" style="endArrow=none;html=1;rounded=0;strokeColor=default;align=center;verticalAlign=middle;fontFamily=Times New Roman;fontSize=11;fontColor=default;labelBackgroundColor=default;edgeStyle=orthogonalEdgeStyle;" edge="1" parent="1">
          <mxGeometry width="50" height="50" relative="1" as="geometry">
            <mxPoint x="235" y="200" as="sourcePoint" />
            <mxPoint x="235" y="160" as="targetPoint" />
          </mxGeometry>
        </mxCell>
        <mxCell id="8T1Mx80KPtTjY7pZMpGo-15" value="&lt;font&gt;(1,1)&lt;/font&gt;" style="text;html=1;align=center;verticalAlign=middle;resizable=0;points=[];autosize=1;strokeColor=none;fillColor=none;fontFamily=Times New Roman;fontSize=12;fontColor=default;labelBackgroundColor=default;" vertex="1" parent="1">
          <mxGeometry x="225" y="185" width="50" height="30" as="geometry" />
        </mxCell>
        <mxCell id="8T1Mx80KPtTjY7pZMpGo-16" value="" style="ellipse;whiteSpace=wrap;html=1;aspect=fixed;fontFamily=Times New Roman;" vertex="1" parent="1">
          <mxGeometry x="235" y="280" width="10" height="10" as="geometry" />
        </mxCell>
        <mxCell id="8T1Mx80KPtTjY7pZMpGo-17" value="" style="ellipse;whiteSpace=wrap;html=1;aspect=fixed;fontFamily=Times New Roman;" vertex="1" parent="1">
          <mxGeometry x="600" y="175" width="10" height="10" as="geometry" />
        </mxCell>
        <mxCell id="8T1Mx80KPtTjY7pZMpGo-18" value="" style="ellipse;whiteSpace=wrap;html=1;aspect=fixed;fontFamily=Times New Roman;" vertex="1" parent="1">
          <mxGeometry x="175" y="280" width="10" height="10" as="geometry" />
        </mxCell>
        <mxCell id="8T1Mx80KPtTjY7pZMpGo-19" value="" style="ellipse;whiteSpace=wrap;html=1;aspect=fixed;fillColor=#FFFFFF;fontFamily=Times New Roman;" vertex="1" parent="1">
          <mxGeometry x="155" y="280" width="10" height="10" as="geometry" />
        </mxCell>
        <mxCell id="8T1Mx80KPtTjY7pZMpGo-20" style="edgeStyle=orthogonalEdgeStyle;shape=connector;rounded=0;orthogonalLoop=1;jettySize=auto;html=1;exitX=0.5;exitY=0;exitDx=0;exitDy=0;entryX=0.135;entryY=0.99;entryDx=0;entryDy=0;entryPerimeter=0;strokeColor=default;align=center;verticalAlign=middle;fontFamily=Times New Roman;fontSize=7;fontColor=default;labelBackgroundColor=default;autosize=1;resizable=0;startFill=0;endArrow=none;" edge="1" parent="1" source="8T1Mx80KPtTjY7pZMpGo-19" target="8T1Mx80KPtTjY7pZMpGo-1">
          <mxGeometry relative="1" as="geometry" />
        </mxCell>
        <mxCell id="8T1Mx80KPtTjY7pZMpGo-21" value="&lt;font&gt;CF&lt;/font&gt;" style="text;html=1;align=center;verticalAlign=middle;resizable=0;points=[];autosize=1;strokeColor=none;fillColor=none;fontFamily=Times New Roman;fontSize=12;fontColor=default;labelBackgroundColor=default;" vertex="1" parent="1">
          <mxGeometry x="135" y="290" width="40" height="30" as="geometry" />
        </mxCell>
        <mxCell id="8T1Mx80KPtTjY7pZMpGo-22" style="edgeStyle=orthogonalEdgeStyle;shape=connector;rounded=0;orthogonalLoop=1;jettySize=auto;html=1;exitX=0.5;exitY=0;exitDx=0;exitDy=0;entryX=0.314;entryY=0.988;entryDx=0;entryDy=0;entryPerimeter=0;strokeColor=default;align=center;verticalAlign=middle;fontFamily=Times New Roman;fontSize=7;fontColor=default;labelBackgroundColor=default;autosize=1;resizable=0;startFill=0;endArrow=none;" edge="1" parent="1" source="8T1Mx80KPtTjY7pZMpGo-18" target="8T1Mx80KPtTjY7pZMpGo-1">
          <mxGeometry relative="1" as="geometry" />
        </mxCell>
        <mxCell id="8T1Mx80KPtTjY7pZMpGo-23" value="&lt;font&gt;Data&lt;br&gt;Nascita&lt;/font&gt;" style="text;html=1;align=center;verticalAlign=middle;resizable=0;points=[];autosize=1;strokeColor=none;fillColor=none;fontFamily=Times New Roman;fontSize=12;fontColor=default;labelBackgroundColor=default;" vertex="1" parent="1">
          <mxGeometry x="165" y="285" width="60" height="40" as="geometry" />
        </mxCell>
        <mxCell id="8T1Mx80KPtTjY7pZMpGo-24" value="&lt;font&gt;Citta&lt;br&gt;Nascita&lt;/font&gt;" style="text;html=1;align=center;verticalAlign=middle;resizable=0;points=[];autosize=1;strokeColor=none;fillColor=none;fontFamily=Times New Roman;fontSize=12;fontColor=default;labelBackgroundColor=default;" vertex="1" parent="1">
          <mxGeometry x="220" y="285" width="60" height="40" as="geometry" />
        </mxCell>
        <mxCell id="8T1Mx80KPtTjY7pZMpGo-25" value="Nome" style="text;html=1;align=center;verticalAlign=middle;resizable=0;points=[];autosize=1;strokeColor=none;fillColor=none;fontFamily=Times New Roman;fontSize=12;fontColor=default;labelBackgroundColor=default;" vertex="1" parent="1">
          <mxGeometry x="85" y="200.39999999999998" width="50" height="30" as="geometry" />
        </mxCell>
        <mxCell id="8T1Mx80KPtTjY7pZMpGo-26" style="edgeStyle=orthogonalEdgeStyle;shape=connector;rounded=0;orthogonalLoop=1;jettySize=auto;html=1;exitX=1;exitY=0.5;exitDx=0;exitDy=0;entryX=0;entryY=0.75;entryDx=0;entryDy=0;strokeColor=default;align=center;verticalAlign=middle;fontFamily=Times New Roman;fontSize=11;fontColor=default;labelBackgroundColor=default;startFill=0;endArrow=none;" edge="1" parent="1" source="8T1Mx80KPtTjY7pZMpGo-27" target="8T1Mx80KPtTjY7pZMpGo-1">
          <mxGeometry relative="1" as="geometry" />
        </mxCell>
        <mxCell id="8T1Mx80KPtTjY7pZMpGo-27" value="" style="ellipse;whiteSpace=wrap;html=1;aspect=fixed;fontFamily=Times New Roman;" vertex="1" parent="1">
          <mxGeometry x="120" y="239.76" width="10" height="10" as="geometry" />
        </mxCell>
        <mxCell id="8T1Mx80KPtTjY7pZMpGo-28" value="Cognome" style="text;html=1;align=center;verticalAlign=middle;resizable=0;points=[];autosize=1;strokeColor=none;fillColor=none;fontFamily=Times New Roman;fontSize=12;fontColor=default;labelBackgroundColor=default;" vertex="1" parent="1">
          <mxGeometry x="75" y="244.76" width="70" height="30" as="geometry" />
        </mxCell>
        <mxCell id="8T1Mx80KPtTjY7pZMpGo-29" style="edgeStyle=orthogonalEdgeStyle;shape=connector;rounded=0;orthogonalLoop=1;jettySize=auto;html=1;exitX=0.5;exitY=0;exitDx=0;exitDy=0;entryX=0.864;entryY=1.002;entryDx=0;entryDy=0;entryPerimeter=0;strokeColor=default;align=center;verticalAlign=middle;fontFamily=Times New Roman;fontSize=11;fontColor=default;labelBackgroundColor=default;startFill=0;endArrow=none;" edge="1" parent="1" source="8T1Mx80KPtTjY7pZMpGo-16" target="8T1Mx80KPtTjY7pZMpGo-1">
          <mxGeometry relative="1" as="geometry" />
        </mxCell>
        <mxCell id="8T1Mx80KPtTjY7pZMpGo-30" value="" style="ellipse;whiteSpace=wrap;html=1;aspect=fixed;fontFamily=Times New Roman;" vertex="1" parent="1">
          <mxGeometry x="120" y="219.76" width="10" height="10" as="geometry" />
        </mxCell>
        <mxCell id="8T1Mx80KPtTjY7pZMpGo-31" style="edgeStyle=orthogonalEdgeStyle;shape=connector;rounded=0;orthogonalLoop=1;jettySize=auto;html=1;exitX=1;exitY=0.5;exitDx=0;exitDy=0;entryX=0.002;entryY=0.224;entryDx=0;entryDy=0;entryPerimeter=0;strokeColor=default;align=center;verticalAlign=middle;fontFamily=Times New Roman;fontSize=11;fontColor=default;labelBackgroundColor=default;startFill=0;endArrow=none;" edge="1" parent="1" source="8T1Mx80KPtTjY7pZMpGo-30" target="8T1Mx80KPtTjY7pZMpGo-1">
          <mxGeometry relative="1" as="geometry" />
        </mxCell>
        <mxCell id="8T1Mx80KPtTjY7pZMpGo-32" value="&lt;font style=&quot;&quot;&gt;Formulare&lt;/font&gt;" style="shape=rhombus;perimeter=rhombusPerimeter;whiteSpace=wrap;html=1;align=center;fontFamily=Times New Roman;" vertex="1" parent="1">
          <mxGeometry x="330" y="205" width="120" height="60" as="geometry" />
        </mxCell>
        <mxCell id="8T1Mx80KPtTjY7pZMpGo-33" value="&lt;font&gt;Offerte&lt;/font&gt;" style="whiteSpace=wrap;html=1;align=center;fontFamily=Times New Roman;" vertex="1" parent="1">
          <mxGeometry x="540" y="209.76" width="120" height="40" as="geometry" />
        </mxCell>
        <mxCell id="8T1Mx80KPtTjY7pZMpGo-34" style="edgeStyle=orthogonalEdgeStyle;shape=connector;rounded=0;orthogonalLoop=1;jettySize=auto;html=1;exitX=0;exitY=0.5;exitDx=0;exitDy=0;entryX=1;entryY=0.5;entryDx=0;entryDy=0;strokeColor=default;align=center;verticalAlign=middle;fontFamily=Times New Roman;fontSize=11;fontColor=default;labelBackgroundColor=default;startFill=0;endArrow=none;" edge="1" parent="1" source="8T1Mx80KPtTjY7pZMpGo-35" target="8T1Mx80KPtTjY7pZMpGo-33">
          <mxGeometry relative="1" as="geometry" />
        </mxCell>
        <mxCell id="8T1Mx80KPtTjY7pZMpGo-35" value="" style="ellipse;whiteSpace=wrap;html=1;aspect=fixed;fontFamily=Times New Roman;" vertex="1" parent="1">
          <mxGeometry x="680" y="224.76" width="10" height="10" as="geometry" />
        </mxCell>
        <mxCell id="8T1Mx80KPtTjY7pZMpGo-36" value="&lt;font&gt;Valore&lt;br&gt;Effettivo&lt;/font&gt;" style="text;html=1;align=center;verticalAlign=middle;resizable=0;points=[];autosize=1;strokeColor=none;fillColor=none;fontFamily=Times New Roman;fontSize=12;fontColor=default;labelBackgroundColor=default;" vertex="1" parent="1">
          <mxGeometry x="670" y="229.76" width="70" height="40" as="geometry" />
        </mxCell>
        <mxCell id="8T1Mx80KPtTjY7pZMpGo-37" value="" style="edgeStyle=none;orthogonalLoop=1;jettySize=auto;html=1;rounded=0;strokeColor=default;align=center;verticalAlign=middle;fontFamily=Times New Roman;fontSize=11;fontColor=default;labelBackgroundColor=default;startFill=0;endArrow=none;exitX=0.4;exitY=0.991;exitDx=0;exitDy=0;exitPerimeter=0;" edge="1" parent="1" source="8T1Mx80KPtTjY7pZMpGo-2">
          <mxGeometry width="100" relative="1" as="geometry">
            <mxPoint x="265" y="139.67000000000002" as="sourcePoint" />
            <mxPoint x="235" y="160" as="targetPoint" />
            <Array as="points" />
          </mxGeometry>
        </mxCell>
        <mxCell id="8T1Mx80KPtTjY7pZMpGo-38" value="" style="edgeStyle=none;orthogonalLoop=1;jettySize=auto;html=1;rounded=0;strokeColor=default;align=center;verticalAlign=middle;fontFamily=Times New Roman;fontSize=11;fontColor=default;labelBackgroundColor=default;startFill=0;endArrow=none;entryX=0.817;entryY=-0.003;entryDx=0;entryDy=0;entryPerimeter=0;" edge="1" parent="1" target="8T1Mx80KPtTjY7pZMpGo-1">
          <mxGeometry width="100" relative="1" as="geometry">
            <mxPoint x="235" y="200" as="sourcePoint" />
            <mxPoint x="375" y="130" as="targetPoint" />
            <Array as="points" />
          </mxGeometry>
        </mxCell>
        <mxCell id="8T1Mx80KPtTjY7pZMpGo-40" value="&lt;font&gt;(0,n)&lt;/font&gt;" style="text;html=1;align=center;verticalAlign=middle;resizable=0;points=[];autosize=1;strokeColor=none;fillColor=none;fontFamily=Times New Roman;fontSize=12;fontColor=default;labelBackgroundColor=default;" vertex="1" parent="1">
          <mxGeometry x="245" y="209.76" width="50" height="30" as="geometry" />
        </mxCell>
        <mxCell id="8T1Mx80KPtTjY7pZMpGo-41" style="edgeStyle=orthogonalEdgeStyle;shape=connector;rounded=0;orthogonalLoop=1;jettySize=auto;html=1;exitX=1;exitY=0.5;exitDx=0;exitDy=0;entryX=-0.004;entryY=0.63;entryDx=0;entryDy=0;entryPerimeter=0;strokeColor=default;align=center;verticalAlign=middle;fontFamily=Times New Roman;fontSize=11;fontColor=default;labelBackgroundColor=default;startFill=0;endArrow=none;" edge="1" parent="1" source="8T1Mx80KPtTjY7pZMpGo-32" target="8T1Mx80KPtTjY7pZMpGo-33">
          <mxGeometry relative="1" as="geometry" />
        </mxCell>
        <mxCell id="8T1Mx80KPtTjY7pZMpGo-43" style="edgeStyle=orthogonalEdgeStyle;shape=connector;rounded=0;orthogonalLoop=1;jettySize=auto;html=1;exitX=0.5;exitY=1;exitDx=0;exitDy=0;strokeColor=default;align=center;verticalAlign=middle;fontFamily=Times New Roman;fontSize=11;fontColor=default;labelBackgroundColor=default;startFill=0;endArrow=none;entryX=0.542;entryY=-0.01;entryDx=0;entryDy=0;entryPerimeter=0;" edge="1" parent="1" source="8T1Mx80KPtTjY7pZMpGo-17" target="8T1Mx80KPtTjY7pZMpGo-33">
          <mxGeometry relative="1" as="geometry">
            <mxPoint x="605" y="205" as="targetPoint" />
          </mxGeometry>
        </mxCell>
        <mxCell id="8T1Mx80KPtTjY7pZMpGo-44" value="&lt;font&gt;Controfferta massima&lt;br&gt;&lt;/font&gt;" style="text;html=1;align=center;verticalAlign=middle;resizable=0;points=[];autosize=1;strokeColor=none;fillColor=none;fontFamily=Times New Roman;fontSize=12;fontColor=default;labelBackgroundColor=default;" vertex="1" parent="1">
          <mxGeometry x="545" y="145.39999999999998" width="130" height="30" as="geometry" />
        </mxCell>
        <mxCell id="8T1Mx80KPtTjY7pZMpGo-45" value="&lt;font&gt;(0,1)&lt;/font&gt;" style="text;html=1;align=center;verticalAlign=middle;resizable=0;points=[];autosize=1;strokeColor=none;fillColor=none;fontSize=12;fontFamily=Times New Roman;" vertex="1" parent="1">
          <mxGeometry x="595" y="185.39999999999998" width="50" height="30" as="geometry" />
        </mxCell>
        <mxCell id="8T1Mx80KPtTjY7pZMpGo-46" style="edgeStyle=orthogonalEdgeStyle;rounded=0;orthogonalLoop=1;jettySize=auto;html=1;exitX=0.5;exitY=1;exitDx=0;exitDy=0;entryX=0.947;entryY=0.288;entryDx=0;entryDy=0;entryPerimeter=0;endArrow=none;startFill=0;fontFamily=Times New Roman;" edge="1" parent="1" source="8T1Mx80KPtTjY7pZMpGo-8" target="8T1Mx80KPtTjY7pZMpGo-2">
          <mxGeometry relative="1" as="geometry" />
        </mxCell>
        <mxCell id="8T1Mx80KPtTjY7pZMpGo-51" style="edgeStyle=orthogonalEdgeStyle;shape=connector;rounded=0;orthogonalLoop=1;jettySize=auto;html=1;exitX=0.5;exitY=1;exitDx=0;exitDy=0;entryX=0.25;entryY=0;entryDx=0;entryDy=0;strokeColor=default;align=center;verticalAlign=middle;fontFamily=Times New Roman;fontSize=11;fontColor=default;labelBackgroundColor=default;startFill=0;endArrow=none;" edge="1" parent="1">
          <mxGeometry relative="1" as="geometry">
            <mxPoint x="205" y="180.39999999999998" as="sourcePoint" />
            <mxPoint x="205" y="210.39999999999998" as="targetPoint" />
          </mxGeometry>
        </mxCell>
        <mxCell id="8T1Mx80KPtTjY7pZMpGo-52" value="&lt;font&gt;Nome utente&lt;/font&gt;" style="text;html=1;align=center;verticalAlign=middle;resizable=0;points=[];autosize=1;strokeColor=none;fillColor=none;fontSize=12;fontFamily=Times New Roman;" vertex="1" parent="1">
          <mxGeometry x="155" y="153" width="90" height="30" as="geometry" />
        </mxCell>
        <mxCell id="8T1Mx80KPtTjY7pZMpGo-53" value="" style="ellipse;whiteSpace=wrap;html=1;aspect=fixed;fillColor=#000000;fontFamily=Times New Roman;" vertex="1" parent="1">
          <mxGeometry x="200" y="175.39999999999998" width="10" height="10" as="geometry" />
        </mxCell>
        <mxCell id="8T1Mx80KPtTjY7pZMpGo-55" style="edgeStyle=orthogonalEdgeStyle;rounded=0;orthogonalLoop=1;jettySize=auto;html=1;exitX=0.5;exitY=1;exitDx=0;exitDy=0;entryX=0.25;entryY=0;entryDx=0;entryDy=0;endArrow=none;startFill=0;" edge="1" parent="1" source="8T1Mx80KPtTjY7pZMpGo-56" target="8T1Mx80KPtTjY7pZMpGo-1">
          <mxGeometry relative="1" as="geometry" />
        </mxCell>
        <mxCell id="8T1Mx80KPtTjY7pZMpGo-56" value="Indirizzo di&lt;div&gt;spedizione&lt;/div&gt;" style="ellipse;whiteSpace=wrap;html=1;align=center;fontFamily=Times New Roman;" vertex="1" parent="1">
          <mxGeometry x="65" y="130" width="100" height="40" as="geometry" />
        </mxCell>
        <mxCell id="8T1Mx80KPtTjY7pZMpGo-57" value="" style="ellipse;whiteSpace=wrap;html=1;aspect=fixed;fontFamily=Times New Roman;" vertex="1" parent="1">
          <mxGeometry x="65" y="110" width="10" height="10" as="geometry" />
        </mxCell>
        <mxCell id="8T1Mx80KPtTjY7pZMpGo-58" value="" style="ellipse;whiteSpace=wrap;html=1;aspect=fixed;fontFamily=Times New Roman;" vertex="1" parent="1">
          <mxGeometry x="100" y="110" width="10" height="10" as="geometry" />
        </mxCell>
        <mxCell id="8T1Mx80KPtTjY7pZMpGo-59" style="edgeStyle=orthogonalEdgeStyle;rounded=0;orthogonalLoop=1;jettySize=auto;html=1;exitX=0.5;exitY=1;exitDx=0;exitDy=0;entryX=0.05;entryY=0.25;entryDx=0;entryDy=0;entryPerimeter=0;endArrow=none;startFill=0;fontFamily=Times New Roman;" edge="1" parent="1" source="8T1Mx80KPtTjY7pZMpGo-57" target="8T1Mx80KPtTjY7pZMpGo-56">
          <mxGeometry relative="1" as="geometry" />
        </mxCell>
        <mxCell id="8T1Mx80KPtTjY7pZMpGo-60" style="edgeStyle=orthogonalEdgeStyle;rounded=0;orthogonalLoop=1;jettySize=auto;html=1;exitX=0.5;exitY=1;exitDx=0;exitDy=0;entryX=0.35;entryY=0.041;entryDx=0;entryDy=0;entryPerimeter=0;endArrow=none;startFill=0;fontFamily=Times New Roman;" edge="1" parent="1">
          <mxGeometry relative="1" as="geometry">
            <mxPoint x="105" y="120" as="sourcePoint" />
            <mxPoint x="105" y="131.64000000000004" as="targetPoint" />
          </mxGeometry>
        </mxCell>
        <mxCell id="8T1Mx80KPtTjY7pZMpGo-61" value="" style="ellipse;whiteSpace=wrap;html=1;aspect=fixed;fontFamily=Times New Roman;" vertex="1" parent="1">
          <mxGeometry x="140" y="110" width="10" height="10" as="geometry" />
        </mxCell>
        <mxCell id="8T1Mx80KPtTjY7pZMpGo-62" style="edgeStyle=orthogonalEdgeStyle;rounded=0;orthogonalLoop=1;jettySize=auto;html=1;exitX=0.5;exitY=1;exitDx=0;exitDy=0;entryX=0.8;entryY=0.087;entryDx=0;entryDy=0;entryPerimeter=0;endArrow=none;startFill=0;fontFamily=Times New Roman;" edge="1" parent="1" source="8T1Mx80KPtTjY7pZMpGo-61" target="8T1Mx80KPtTjY7pZMpGo-56">
          <mxGeometry relative="1" as="geometry">
            <mxPoint x="145" y="130.11999999999995" as="targetPoint" />
          </mxGeometry>
        </mxCell>
        <mxCell id="8T1Mx80KPtTjY7pZMpGo-63" value="&lt;font&gt;(1,1)&lt;/font&gt;" style="text;html=1;align=center;verticalAlign=middle;resizable=0;points=[];autosize=1;strokeColor=none;fillColor=none;fontFamily=Times New Roman;fontSize=12;fontColor=default;labelBackgroundColor=default;" vertex="1" parent="1">
          <mxGeometry x="130" y="165.39999999999998" width="50" height="30" as="geometry" />
        </mxCell>
        <mxCell id="8T1Mx80KPtTjY7pZMpGo-64" value="&lt;font style=&quot;font-size: 10px;&quot;&gt;via&lt;/font&gt;" style="text;html=1;align=center;verticalAlign=middle;whiteSpace=wrap;rounded=0;fontFamily=Times New Roman;fontSize=12;fontColor=default;labelBackgroundColor=default;" vertex="1" parent="1">
          <mxGeometry x="40" y="83" width="60" height="30" as="geometry" />
        </mxCell>
        <mxCell id="8T1Mx80KPtTjY7pZMpGo-65" value="&lt;span style=&quot;font-size: 10px;&quot;&gt;CAP&lt;/span&gt;" style="text;html=1;align=center;verticalAlign=middle;whiteSpace=wrap;rounded=0;fontFamily=Times New Roman;fontSize=12;fontColor=default;labelBackgroundColor=default;" vertex="1" parent="1">
          <mxGeometry x="75" y="83" width="60" height="30" as="geometry" />
        </mxCell>
        <mxCell id="8T1Mx80KPtTjY7pZMpGo-66" value="&lt;span style=&quot;font-size: 10px;&quot;&gt;civico&lt;/span&gt;" style="text;html=1;align=center;verticalAlign=middle;whiteSpace=wrap;rounded=0;fontFamily=Times New Roman;fontSize=12;fontColor=default;labelBackgroundColor=default;" vertex="1" parent="1">
          <mxGeometry x="120" y="83" width="60" height="30" as="geometry" />
        </mxCell>
        <mxCell id="8T1Mx80KPtTjY7pZMpGo-67" style="edgeStyle=orthogonalEdgeStyle;rounded=0;orthogonalLoop=1;jettySize=auto;html=1;exitX=0;exitY=0.5;exitDx=0;exitDy=0;entryX=1;entryY=0.63;entryDx=0;entryDy=0;entryPerimeter=0;endArrow=none;startFill=0;" edge="1" parent="1" source="8T1Mx80KPtTjY7pZMpGo-32" target="8T1Mx80KPtTjY7pZMpGo-1">
          <mxGeometry relative="1" as="geometry" />
        </mxCell>
      </root>
    </mxGraphModel>
  </diagram>
</mxfile>
